# xmcd CD database file
#
# Track frame offsets:
#	150
#	17400
#	36450
#	54475
#	62775
#	90000
#	106525
#	121725
#	137250
#	160000
#
# Disc length: 2392 seconds
#
# Revision: 1
# Processed by: cddbd v1.5.2PL0 Copyright (c) Steve Scherf et al.
# Submitted via: CDex 1.51
#
DISCID=6709560a
DTITLE=Louisiana Red - Back To The Roots
DYEAR=1987
DGENRE=Blues
TTITLE0=Backwater Blues
TTITLE1=Pearley May
TTITLE2=Since I Met You Baby
TTITLE3=Freedom On The Road
TTITLE4=What Would It Be Like
TTITLE5=Back To My Roots Again
TTITLE6=When You See Me Walking
TTITLE7=Get Ready Children
TTITLE8=Down In The Basement
TTITLE9=The Day I Met Muddy Waters
EXTD=recorded in Köln 1987 YEAR: 1987
EXTT0=
EXTT1=
EXTT2=
EXTT3=
EXTT4=
EXTT5=
EXTT6=
EXTT7=
EXTT8=
EXTT9=
PLAYORDER=
